<?xml version="1.0" standalone="no"?>
<!DOCTYPE svg PUBLIC "-//W3C//DTD SVG 20010904//EN"
 "http://www.w3.org/TR/2001/REC-SVG-20010904/DTD/svg10.dtd">
<svg version="1.0" xmlns="http://www.w3.org/2000/svg"
 width="212.998212pt" height="170.983889pt" viewBox="0 0 212.998212 170.983889"
 preserveAspectRatio="xMidYMid meet">
<metadata>
Created by potrace 1.16, written by Peter Selinger 2001-2019
</metadata>
<g transform="translate(-44.001788,213.659764) scale(0.100000,-0.100000)"
fill="#000000" stroke="none">
<path d="M1360 2124 c-48 -17 -94 -47 -150 -99 -34 -32 -37 -33 -125 -32 l-89
0 -17 37 c-45 99 -156 116 -229 34 -25 -29 -30 -43 -30 -84 0 -41 5 -55 31
-85 17 -19 42 -38 55 -41 23 -6 24 -9 24 -113 l0 -107 -147 -145 c-82 -80
-169 -159 -195 -175 -27 -16 -48 -32 -48 -35 0 -4 18 -18 40 -30 22 -13 109
-93 195 -178 l155 -154 0 -98 c0 -80 -3 -99 -15 -99 -8 0 -30 -14 -50 -31 -66
-59 -66 -150 1 -208 29 -26 43 -31 84 -31 41 0 55 5 85 31 19 17 38 42 41 55
6 23 9 24 112 24 l105 0 48 -45 c65 -60 128 -88 205 -88 52 -1 75 6 149 41 65
31 85 46 77 54 -8 8 -34 1 -98 -27 -73 -31 -96 -36 -139 -33 -55 5 -122 33
-170 73 l-30 25 295 0 295 0 16 -33 c61 -124 234 -88 246 52 5 58 -21 102 -77
131 l-40 20 0 134 c0 95 4 136 13 143 6 6 87 44 179 86 204 94 234 100 159 31
-40 -36 -281 -357 -281 -375 0 -30 39 3 101 89 211 288 225 302 296 302 68 0
133 69 133 140 0 78 -62 140 -140 140 -66 0 -112 45 -239 235 -61 90 -116 167
-122 171 -6 3 -15 2 -20 -3 -14 -14 200 -327 263 -385 29 -27 46 -48 40 -48
-7 0 -22 -16 -34 -36 -18 -31 -24 -34 -52 -28 -56 11 -110 40 -206 112 -52 39
-143 101 -201 137 -96 59 -108 70 -113 101 -8 42 -63 99 -104 107 -46 9 -97
-10 -132 -49 -27 -31 -35 -35 -53 -27 -12 5 -97 43 -189 83 l-168 74 47 48 47
48 317 0 317 0 6 -24 c7 -27 69 -86 91 -86 12 0 15 -27 17 -142 3 -119 5 -143
18 -143 12 0 15 24 18 140 l3 140 32 15 c71 33 101 137 56 194 -63 80 -176 71
-225 -19 -10 -19 -19 -35 -19 -36 0 0 -132 -3 -292 -5 -192 -3 -293 -2 -293 5
0 16 87 79 127 92 59 19 149 7 231 -31 52 -24 76 -30 83 -23 14 14 -12 31
-101 68 -81 34 -160 41 -220 19z m-442 -50 c27 -19 52 -65 52 -96 0 -36 -37
-88 -75 -103 -47 -20 -89 -9 -125 32 -44 49 -42 103 4 149 28 28 41 34 78 34
24 0 54 -7 66 -16z m1110 -28 c12 -12 25 -39 29 -59 5 -32 1 -41 -30 -72 -39
-39 -70 -44 -116 -20 -16 8 -34 27 -41 44 -40 98 82 181 158 107z m-924 -127
l-41 -41 -42 21 c-38 20 -50 39 -34 54 3 4 40 7 82 7 l76 0 -41 -41z m-100
-46 l35 -16 -81 -86 c-46 -47 -85 -87 -88 -89 -3 -1 -4 36 -2 83 3 71 6 85 20
85 9 0 28 9 42 20 31 24 31 24 74 3z m231 -106 c66 -30 148 -67 183 -82 34
-15 62 -31 62 -36 0 -4 -75 -47 -166 -95 -184 -97 -211 -115 -200 -133 6 -9
23 -4 62 19 30 17 111 60 181 97 116 61 126 65 136 48 33 -59 101 -86 165 -67
34 11 39 9 159 -71 l123 -82 -3 -98 -2 -98 -117 -76 -118 -75 -34 16 c-19 9
-44 16 -55 16 -36 0 -86 -26 -108 -55 l-20 -28 -159 88 c-88 48 -167 93 -176
99 -13 8 -21 7 -30 -2 -16 -16 -13 -17 187 -127 101 -55 164 -96 165 -105 0
-10 -16 -22 -37 -29 -21 -8 -111 -46 -200 -86 l-161 -72 -101 101 -101 101 0
116 c0 85 -4 120 -13 128 -23 18 -27 2 -27 -101 0 -54 -1 -98 -3 -98 -1 0 -50
46 -108 103 -58 56 -124 119 -147 140 l-42 37 169 0 c167 0 169 0 175 -23 8
-35 64 -86 102 -93 50 -9 83 3 126 45 33 34 38 45 38 85 0 26 -5 57 -11 69
-34 66 -102 97 -165 77 -37 -13 -94 -74 -94 -102 0 -17 -14 -18 -164 -18
l-165 0 142 139 142 139 3 -99 c2 -75 6 -99 16 -99 22 0 27 27 25 143 l-1 109
102 103 c87 88 106 102 124 95 12 -4 75 -33 141 -63z m419 -11 c68 -28 95
-101 62 -165 -34 -64 -120 -82 -175 -36 -34 29 -55 82 -46 118 8 29 61 83 90
90 33 8 34 8 69 -7z m215 -229 c57 -38 136 -93 177 -123 40 -30 95 -65 121
-79 27 -13 41 -25 32 -25 -28 0 -152 41 -189 63 -43 25 -272 177 -283 187 -12
10 14 61 27 53 6 -4 58 -38 115 -76z m159 -211 c26 -13 61 -27 77 -31 l30 -7
-37 -13 c-20 -8 -54 -25 -75 -39 -21 -14 -41 -26 -45 -26 -5 0 -8 32 -8 70 0
39 2 70 5 70 3 0 27 -11 53 -24z m279 -87 c11 -29 10 -31 -15 -40 -15 -5 -144
-63 -287 -128 -256 -117 -260 -119 -272 -97 -15 26 -27 16 191 157 181 116
228 137 316 138 53 1 56 0 67 -30z m-367 -374 c0 -119 -2 -135 -17 -135 -22 0
-93 -76 -93 -100 0 -19 -9 -20 -317 -20 l-317 0 -48 47 c-26 26 -48 50 -48 54
0 3 84 44 187 90 138 61 188 79 191 69 3 -7 19 -29 36 -48 25 -27 42 -35 78
-39 72 -8 127 34 151 118 4 11 170 96 195 99 1 0 2 -61 2 -135z m-910 -137 c0
-4 -15 -14 -34 -22 -31 -13 -38 -12 -79 7 l-46 22 -1 79 0 78 80 -78 c44 -43
80 -81 80 -86z m-97 -58 c53 -59 28 -151 -49 -181 -40 -15 -79 -2 -114 37 -34
39 -39 78 -15 124 35 67 127 77 178 20z m142 -58 c-56 -2 -81 1 -86 10 -16 24
-9 37 28 57 l37 19 49 -42 49 -41 -77 -3z m925 73 c95 -49 60 -189 -48 -189
-48 0 -92 49 -92 102 1 43 15 65 56 87 36 19 48 19 84 0z"/>
<path d="M1477 1350 c-77 -60 -6 -187 83 -150 33 14 60 55 60 90 0 12 -13 35
-29 51 -35 35 -77 38 -114 9z m102 -26 c12 -15 21 -35 21 -46 0 -25 -44 -68
-70 -68 -26 0 -70 43 -70 68 0 33 38 72 70 72 19 0 36 -9 49 -26z"/>
<path d="M617 1632 c-34 -38 -9 -102 39 -102 33 0 64 29 64 59 0 54 -68 82
-103 43z m64 -2 c26 -15 26 -66 -1 -80 -23 -12 -54 0 -64 25 -9 25 12 57 42
64 2 1 12 -4 23 -9z"/>
<path d="M2039 1554 c-17 -21 0 -49 31 -49 31 0 48 28 31 49 -8 9 -21 16 -31
16 -10 0 -23 -7 -31 -16z m48 -10 c8 -21 -13 -42 -28 -27 -13 13 -5 43 11 43
6 0 13 -7 17 -16z"/>
<path d="M620 862 c-26 -21 -30 -67 -9 -87 29 -27 57 -27 84 -1 31 31 32 50 0
81 -29 30 -45 31 -75 7z m68 -14 c30 -30 3 -82 -40 -76 -29 4 -47 50 -28 72
15 19 51 21 68 4z"/>
</g>
</svg>
