<?xml version="1.0" standalone="no"?>
<!DOCTYPE svg PUBLIC "-//W3C//DTD SVG 20010904//EN"
 "http://www.w3.org/TR/2001/REC-SVG-20010904/DTD/svg10.dtd">
<svg version="1.0" xmlns="http://www.w3.org/2000/svg"
 width="482.951587pt" height="146.834308pt" viewBox="0 0 482.951587 146.834308"
 preserveAspectRatio="xMidYMid meet">
<metadata>
Created by potrace 1.16, written by Peter Selinger 2001-2019
</metadata>
<g transform="translate(-44.048413,166.865458) scale(0.100000,-0.100000)"
fill="#000000" stroke="none">
<path d="M1214 1655 c-16 -7 -53 -34 -81 -59 l-51 -46 -81 0 c-78 0 -81 1 -87
25 -10 42 -59 75 -110 75 -129 0 -170 -156 -57 -217 l33 -18 0 -86 0 -86 -130
-128 c-71 -71 -148 -140 -170 -154 -22 -14 -40 -28 -40 -31 1 -3 18 -16 40
-30 21 -14 98 -83 170 -154 l130 -129 0 -78 c0 -77 0 -79 -30 -94 -37 -19 -70
-70 -70 -108 0 -62 58 -117 123 -117 40 0 93 38 108 77 8 21 14 23 90 23 82 0
82 0 126 -41 94 -86 184 -101 303 -48 38 18 70 38 70 45 0 20 -9 18 -83 -16
-102 -46 -180 -36 -262 34 l-30 25 258 1 c221 0 257 -2 257 -15 0 -8 13 -29
28 -46 21 -24 38 -32 75 -36 44 -5 49 -3 87 35 31 31 40 47 40 73 0 43 -31 94
-69 113 -32 17 -38 47 -37 180 l1 70 155 72 c163 75 206 84 146 30 -48 -43
-247 -306 -240 -317 3 -5 9 -9 14 -9 4 0 55 62 113 138 130 170 160 199 208
199 20 1 46 6 58 13 34 18 61 70 61 118 0 34 -6 49 -34 79 -29 32 -40 37 -81
39 -61 2 -91 31 -218 209 -88 123 -117 153 -117 123 0 -22 186 -279 232 -320
22 -21 36 -38 30 -38 -6 0 -20 -15 -32 -34 -18 -30 -24 -33 -48 -27 -47 14
-103 47 -207 121 -55 40 -130 90 -167 113 -48 30 -68 49 -72 68 -3 14 -17 40
-31 57 -47 57 -130 52 -178 -9 l-22 -29 -158 72 -157 72 42 43 42 43 263 0
263 0 9 -23 c10 -24 65 -77 82 -77 5 0 9 -51 9 -112 0 -112 8 -147 29 -134 7
5 11 49 11 124 l0 118 30 11 c35 13 70 67 70 108 0 39 -33 93 -66 105 -61 24
-130 -3 -155 -59 l-14 -31 -255 0 -255 1 30 25 c87 73 175 83 275 31 28 -15
59 -27 67 -27 29 0 6 24 -53 54 -69 36 -177 46 -230 21z m-341 -56 c35 -38 36
-86 2 -127 -30 -35 -69 -45 -111 -27 -83 34 -83 144 -1 181 42 18 76 10 110
-27z m920 9 c52 -27 63 -88 23 -134 -50 -59 -146 -20 -146 59 1 66 66 106 123
75z m-774 -124 l-36 -35 -36 17 c-30 14 -34 20 -26 36 8 14 22 18 72 18 l62 0
-36 -36z m-87 -40 l30 -16 -68 -73 c-38 -40 -72 -73 -76 -74 -5 0 -8 31 -8 69
0 62 2 70 19 70 10 0 29 9 42 20 29 24 24 23 61 4z m234 -110 c90 -43 164 -82
164 -88 0 -7 -26 -24 -57 -40 -137 -66 -255 -138 -244 -149 8 -8 33 1 88 31
43 24 110 59 149 79 l70 35 31 -30 c37 -38 74 -48 120 -34 33 10 38 8 139 -61
l104 -71 0 -86 0 -85 -78 -49 c-42 -28 -87 -58 -99 -69 -20 -18 -23 -18 -45
-3 -43 31 -134 12 -158 -33 -9 -18 -20 -14 -157 65 -82 46 -152 84 -156 84 -5
0 -7 -7 -5 -16 2 -9 68 -53 147 -98 80 -45 146 -86 148 -91 2 -6 -72 -44 -164
-86 l-168 -76 -92 86 -93 86 0 108 c0 82 -3 108 -12 105 -9 -3 -15 -34 -18
-90 l-5 -86 -122 118 c-88 86 -118 120 -107 124 9 3 71 6 138 6 l122 0 17 -35
c19 -40 69 -75 108 -75 33 0 90 38 106 70 24 46 16 97 -20 136 -60 66 -155 51
-194 -31 l-17 -35 -138 0 -137 0 122 119 122 119 3 -84 c2 -66 6 -84 17 -84
12 0 15 19 15 102 l0 103 92 92 c51 51 94 93 96 93 2 0 78 -34 168 -76z m355
-13 c64 -65 20 -171 -71 -171 -33 0 -48 6 -71 29 -42 42 -40 92 5 137 45 45
95 47 137 5z m146 -172 c43 -29 110 -76 149 -105 39 -29 89 -62 110 -73 l39
-22 -40 6 c-62 10 -111 35 -254 130 -118 78 -130 89 -120 107 13 24 19 22 116
-43z m175 -198 c53 -18 59 -26 25 -35 -13 -3 -40 -17 -61 -31 -20 -14 -39 -25
-41 -25 -3 0 -5 27 -5 61 0 54 2 60 18 53 9 -4 38 -14 64 -23z m205 -64 c10
-22 4 -26 -235 -135 -242 -111 -261 -116 -262 -77 0 6 15 19 33 29 17 11 79
51 137 89 141 94 192 117 261 117 49 0 57 -3 66 -23z m-317 -322 c0 -99 -2
-115 -16 -115 -22 0 -74 -57 -74 -81 0 -18 -12 -19 -271 -19 l-270 0 -45 43
-45 42 153 69 c84 38 156 71 160 73 4 2 14 -10 24 -25 21 -36 63 -62 101 -62
38 0 91 34 104 67 6 16 14 34 18 41 4 10 132 75 159 81 1 1 2 -51 2 -114z
m-803 -136 c-27 -15 -34 -15 -47 -4 -8 8 -27 18 -43 24 -26 10 -27 14 -27 78
l0 67 75 -74 75 -74 -33 -17z m-53 -30 c24 -27 27 -38 22 -68 -7 -46 -55 -91
-97 -91 -22 0 -41 10 -66 35 -31 31 -35 40 -30 72 15 91 109 119 171 52z m937
2 c20 -20 29 -39 29 -61 0 -43 -47 -90 -90 -90 -85 0 -112 124 -35 168 33 19
65 13 96 -17z m-791 -16 l34 -35 -66 0 c-52 0 -67 3 -72 16 -7 19 -10 17 29
37 40 21 36 22 75 -18z"/>
<path d="M1325 985 c-14 -13 -25 -36 -25 -50 0 -14 11 -37 25 -50 46 -47 118
-23 131 42 5 26 1 37 -19 57 -34 34 -80 34 -112 1z m89 -6 c33 -26 33 -59 2
-88 -19 -18 -32 -22 -51 -17 -50 13 -59 91 -13 114 31 15 32 15 62 -9z"/>
<path d="M592 1238 c-7 -7 -12 -24 -12 -38 0 -33 17 -50 50 -50 14 0 31 5 38
12 7 7 12 24 12 38 0 14 -5 31 -12 38 -7 7 -24 12 -38 12 -14 0 -31 -5 -38
-12z m66 -10 c32 -32 -2 -79 -43 -60 -39 18 -27 72 15 72 9 0 21 -5 28 -12z"/>
<path d="M1833 1183 c-15 -6 -17 -49 -3 -58 33 -20 65 26 38 53 -13 13 -16 13
-35 5z m35 -30 c-2 -10 -10 -18 -18 -18 -8 0 -16 8 -18 18 -2 12 3 17 18 17
15 0 20 -5 18 -17z"/>
<path d="M5180 1095 l0 -76 -32 17 c-50 26 -105 13 -149 -34 -84 -89 -52 -246
57 -282 38 -13 84 -3 116 27 17 15 18 15 18 -5 0 -19 6 -22 40 -22 l40 0 0
225 0 225 -45 0 -45 0 0 -75z m-25 -137 c48 -42 43 -129 -10 -164 -21 -14 -30
-14 -54 -5 -81 34 -61 185 26 190 7 1 24 -9 38 -21z"/>
<path d="M2520 940 l0 -220 150 0 150 0 0 40 0 40 -105 0 -105 0 0 55 0 55 95
0 95 0 0 35 0 35 -95 0 -95 0 0 55 0 55 105 0 105 0 0 35 0 35 -150 0 -150 0
0 -220z"/>
<path d="M3990 940 l0 -220 45 0 45 0 0 90 0 89 88 3 87 3 0 35 0 35 -87 3
-88 3 0 54 0 55 100 0 100 0 0 35 0 35 -145 0 -145 0 0 -220z"/>
<path d="M3230 1085 c0 -38 -3 -45 -20 -45 -16 0 -20 -7 -20 -35 0 -28 4 -35
20 -35 19 0 20 -7 20 -90 0 -95 14 -142 45 -154 20 -7 100 -8 107 -1 2 3 3 18
0 35 -4 25 -9 30 -33 30 -35 0 -41 18 -37 115 l3 70 33 3 c28 3 32 7 32 33 0
27 -3 29 -35 29 -35 0 -35 0 -35 45 l0 45 -40 0 -40 0 0 -45z"/>
<path d="M2981 1024 c-30 -25 -31 -25 -31 -5 0 18 -6 21 -40 21 l-40 0 0 -160
0 -160 40 0 40 0 0 98 c0 109 11 142 53 156 23 8 31 6 50 -12 20 -20 22 -35
25 -132 l4 -110 39 0 39 0 0 120 c0 129 -9 164 -52 194 -35 25 -91 20 -127
-10z"/>
<path d="M3541 1024 c-30 -25 -31 -25 -31 -5 0 18 -6 21 -45 21 l-45 0 0 -160
0 -160 45 0 45 0 0 94 c0 79 3 97 21 120 14 17 30 26 50 26 28 0 29 2 29 45 0
38 -3 45 -19 45 -11 0 -33 -12 -50 -26z"/>
<path d="M3715 1036 c-131 -57 -124 -260 9 -311 73 -28 155 0 196 67 26 43 27
130 1 178 -35 68 -132 98 -206 66z m112 -80 c23 -20 28 -32 28 -68 0 -65 -25
-98 -75 -98 -29 0 -43 6 -54 22 -25 35 -30 82 -12 116 29 56 69 66 113 28z"/>
<path d="M4372 1033 c-58 -28 -77 -67 -77 -155 0 -74 1 -78 35 -113 62 -64
151 -70 215 -13 43 37 44 54 3 62 -24 5 -37 1 -53 -14 -29 -27 -71 -25 -100 5
-48 47 -37 55 85 55 l110 0 0 43 c0 110 -117 180 -218 130z m113 -68 c44 -43
34 -55 -45 -55 -38 0 -70 2 -70 4 0 21 24 58 42 66 36 14 47 12 73 -15z"/>
<path d="M4700 1028 c-50 -34 -72 -71 -78 -126 -6 -65 11 -114 53 -151 65 -57
178 -47 225 19 22 31 20 34 -22 44 -20 5 -33 1 -48 -14 -20 -20 -54 -26 -85
-14 -14 6 -45 53 -45 69 0 3 52 5 116 5 l117 0 -7 46 c-8 62 -33 102 -78 125
-50 26 -107 24 -148 -3z m115 -63 c44 -43 34 -55 -45 -55 -43 0 -70 4 -70 11
0 17 57 69 75 69 9 0 27 -11 40 -25z"/>
<path d="M590 570 c-24 -24 -25 -38 -4 -68 18 -27 55 -29 77 -4 23 26 21 58
-5 76 -30 21 -44 20 -68 -4z m70 -21 c9 -16 8 -25 -6 -40 -22 -24 -29 -24 -54
1 -16 16 -18 25 -10 40 14 27 56 26 70 -1z"/>
</g>
</svg>
